<?xml version="1.0" standalone="no"?>
<!DOCTYPE svg PUBLIC "-//W3C//DTD SVG 20010904//EN"
 "http://www.w3.org/TR/2001/REC-SVG-20010904/DTD/svg10.dtd">
<svg version="1.0" xmlns="http://www.w3.org/2000/svg"
 width="1280.000000pt" height="1280.000000pt" viewBox="0 0 1280.000000 1280.000000"
 preserveAspectRatio="xMidYMid meet">

<g transform="translate(0.000000,1280.000000) scale(0.100000,-0.100000)"
fill="#000000" stroke="none">
<path d="M6265 9733 c-343 -46 -598 -125 -838 -259 -527 -293 -932 -823 -1061
-1389 -55 -239 -60 -287 -60 -530 0 -245 12 -340 69 -566 100 -396 366 -822
675 -1083 287 -244 609 -401 1001 -488 95 -21 128 -23 389 -23 316 1 373 7
588 70 263 77 476 185 687 351 44 34 100 83 125 109 l45 47 -98 -62 c-276
-173 -576 -282 -867 -316 -169 -20 -497 -14 -640 11 -443 79 -889 335 -1167
668 -156 187 -268 380 -349 600 -88 237 -118 412 -117 677 1 325 56 569 191
851 157 326 470 667 762 831 25 14 66 38 93 53 148 84 356 154 592 199 355 67
756 25 1105 -115 269 -109 478 -244 694 -449 44 -42 73 -64 66 -50 -26 49
-146 195 -224 273 -397 390 -915 600 -1466 595 -91 0 -178 -3 -195 -5z"/>
<path d="M6485 9364 c-267 -40 -263 -39 -435 -101 -187 -68 -357 -169 -509
-303 -95 -84 -118 -119 -45 -67 83 58 214 123 354 175 449 168 965 140 1383
-75 292 -151 553 -414 701 -710 102 -203 151 -374 167 -583 20 -251 -10 -477
-91 -698 -148 -404 -481 -754 -880 -925 -125 -53 -141 -58 -290 -91 -288 -63
-492 -60 -788 13 -152 38 -230 68 -381 147 -106 55 -337 213 -355 243 -3 5
-30 29 -58 53 l-52 43 54 -79 c65 -93 250 -283 338 -346 265 -190 535 -295
865 -335 312 -37 667 28 972 180 188 93 306 178 455 325 145 143 177 181 255
301 214 326 316 690 302 1074 -9 240 -45 417 -131 634 -132 332 -370 628 -670
831 -181 121 -483 244 -681 275 -96 16 -418 28 -480 19z"/>
<path d="M6345 8759 c-71 -5 -204 -15 -295 -22 l-165 -12 -47 -140 c-25 -77
-72 -221 -103 -320 -51 -162 -170 -534 -306 -955 -27 -85 -72 -222 -98 -305
-27 -82 -59 -184 -71 -225 -12 -41 -25 -81 -27 -87 -4 -10 37 -13 186 -13
l191 0 11 28 c6 15 26 81 46 147 19 66 56 184 80 263 l45 142 159 0 159 0 0
-284 0 -284 38 -6 c149 -24 463 -32 626 -16 296 29 456 89 586 220 83 83 125
156 145 248 56 270 -39 490 -264 606 -49 25 -96 46 -105 46 -31 0 -15 15 47
45 120 58 227 191 257 318 22 96 5 228 -41 318 -63 124 -224 232 -403 271
-108 23 -442 32 -651 17z m487 -280 c155 -33 241 -129 241 -269 0 -78 -26
-139 -81 -193 -82 -79 -186 -107 -409 -107 l-103 0 0 284 0 285 28 4 c60 9
274 6 324 -4z m-727 -926 c-3 -10 -38 -13 -129 -13 l-124 0 33 108 c125 411
165 548 185 632 12 52 25 102 28 110 8 17 15 -818 7 -837z m703 67 c237 -31
368 -215 304 -427 -27 -86 -75 -144 -153 -184 -94 -47 -170 -60 -332 -57
l-142 3 -3 338 -2 337 127 0 c71 0 161 -5 201 -10z"/>
<path d="M1650 4775 l0 -155 115 0 c63 0 115 -3 115 -6 0 -3 -45 -139 -100
-301 -55 -162 -100 -301 -100 -309 0 -12 27 -14 162 -12 l161 3 17 50 17 50
148 0 148 0 17 -50 17 -50 161 -3 c121 -2 162 1 162 10 0 9 -281 846 -306 912
-5 14 -46 16 -370 16 l-364 0 0 -155z m570 -347 c16 -48 30 -89 30 -92 0 -3
-29 -6 -65 -6 -36 0 -65 4 -65 8 0 7 37 123 55 171 8 20 11 14 45 -81z"/>
<path d="M2710 4461 l0 -471 160 0 160 0 2 227 c2 149 7 228 14 230 18 6 92
-50 124 -94 43 -58 69 -141 82 -261 l11 -102 156 2 156 3 3 468 2 467 -160 0
-160 0 0 -78 0 -79 -104 52 c-124 62 -236 94 -357 102 l-89 6 0 -472z"/>
<path d="M3756 4468 c-86 -255 -156 -466 -156 -471 0 -4 73 -6 162 -5 l163 3
19 53 19 53 146 -3 146 -3 19 -52 19 -53 158 0 c121 0 159 3 159 13 0 11 -101
318 -243 737 l-63 185 -196 3 -195 2 -157 -462z m388 -43 c14 -44 26 -83 26
-88 0 -8 -114 -10 -122 -2 -3 3 8 46 25 96 16 49 33 86 37 82 4 -4 19 -44 34
-88z"/>
<path d="M5100 4775 l0 -155 45 0 45 0 2 -312 3 -313 305 0 c350 0 367 3 453
84 97 91 129 208 88 321 l-22 60 22 60 c52 143 -17 308 -159 377 l-57 28 -362
3 -363 3 0 -156z m610 -128 c33 -17 39 -61 11 -77 -13 -6 -59 -10 -114 -8
l-92 3 -3 33 c-5 52 10 62 97 62 42 0 87 -6 101 -13z m18 -299 c16 -16 15 -53
-2 -67 -9 -8 -48 -11 -112 -9 l-99 3 -3 28 c-6 54 -1 57 106 57 63 0 102 -4
110 -12z"/>
<path d="M6383 4913 c-35 -90 -309 -910 -306 -915 2 -5 76 -8 163 -8 l159 0
17 55 18 55 147 0 146 0 19 -52 19 -53 163 -3 c89 -1 162 1 162 4 0 4 -67 205
-149 448 -82 243 -152 451 -156 464 -6 22 -8 22 -201 22 -176 0 -195 -2 -201
-17z m257 -570 c0 -9 -18 -13 -60 -13 -38 0 -60 4 -60 11 0 10 34 112 56 169
6 14 64 -138 64 -167z"/>
<path d="M7409 4914 c-59 -18 -127 -78 -164 -145 -26 -47 -30 -64 -30 -134 0
-70 4 -87 30 -134 33 -59 84 -107 163 -152 28 -17 52 -35 52 -40 0 -5 -74 -9
-175 -9 l-176 0 3 -152 3 -153 275 0 c260 0 277 1 321 21 60 28 125 93 152
153 32 70 29 180 -5 247 -30 57 -83 109 -154 150 -88 50 -91 49 102 54 l179 5
3 130 c1 72 0 140 -3 153 l-5 22 -263 -1 c-196 0 -274 -4 -308 -15z"/>
<path d="M8181 4908 c-30 -79 -301 -893 -301 -904 0 -11 31 -14 159 -14 l158
0 19 53 19 52 146 3 146 3 19 -53 19 -53 163 -3 c89 -1 162 1 162 5 0 5 -70
216 -156 471 l-157 462 -194 0 c-191 0 -194 0 -202 -22z m264 -559 c6 -17 1
-19 -59 -19 -36 0 -66 4 -66 8 0 8 40 132 56 172 5 13 41 -71 69 -161z"/>
<path d="M8915 4918 c-3 -7 -4 -218 -3 -468 l3 -455 435 0 435 0 0 150 0 150
-272 3 -273 2 -2 313 -3 312 -158 3 c-120 2 -159 0 -162 -10z"/>
<path d="M9810 4460 l0 -471 158 3 157 3 0 465 0 465 -157 3 -158 3 0 -471z"/>
<path d="M10150 4460 l0 -470 160 0 160 0 0 120 c0 66 4 120 9 120 5 0 47 -56
94 -126 l85 -125 25 33 c13 18 54 78 90 132 l66 100 3 -125 3 -124 158 -3 157
-3 0 471 0 470 -155 0 -155 0 -92 -140 c-51 -77 -96 -140 -100 -140 -4 0 -50
63 -103 140 l-96 140 -154 0 -155 0 0 -470z"/>
<path d="M6746 3458 c-34 -34 -92 -96 -129 -136 l-67 -72 0 108 c0 114 -12
151 -43 139 -27 -10 -37 -78 -40 -257 -2 -155 0 -174 16 -184 33 -21 52 4 55
77 l3 66 36 -25 c59 -40 211 -72 257 -54 60 23 10 68 -99 89 -37 8 -69 20 -72
27 -3 8 30 52 77 103 101 110 112 126 108 154 -6 42 -37 31 -102 -35z"/>
<path d="M6095 3485 c-70 -36 -121 -67 -150 -95 -27 -26 -55 -104 -55 -156 0
-102 87 -177 205 -178 94 0 158 28 236 104 57 55 69 73 79 118 22 96 -8 165
-89 207 -69 35 -156 35 -226 0z m212 -69 c40 -20 60 -73 44 -118 -18 -52 -56
-93 -118 -125 -71 -37 -121 -47 -172 -33 -60 16 -91 53 -91 109 0 49 21 94 34
73 13 -21 25 -13 44 31 27 61 84 90 167 84 34 -2 75 -12 92 -21z"/>
<path d="M7105 3491 c-62 -28 -160 -97 -178 -124 -26 -40 -40 -112 -32 -164
14 -97 132 -166 247 -144 81 15 121 36 186 96 91 84 114 168 70 255 -33 64
-100 100 -188 100 -42 0 -79 -7 -105 -19z m202 -74 c91 -48 53 -177 -73 -244
-73 -39 -119 -48 -171 -34 -61 17 -93 54 -93 108 0 57 16 89 35 73 16 -13 35
-5 35 15 0 21 51 76 85 92 38 17 139 12 182 -10z"/>
<path d="M5610 3469 c-231 -27 -220 -24 -220 -64 0 -41 3 -41 111 -24 38 7 72
10 74 7 3 -3 -1 -47 -10 -99 -20 -123 -20 -193 1 -209 26 -23 40 7 53 115 20
163 29 195 58 206 13 5 64 9 113 9 87 0 90 1 96 25 16 62 -10 66 -276 34z"/>
</g>
</svg>
